<mxfile host="Electron" modified="2024-06-02T14:17:33.876Z" agent="Mozilla/5.0 (Windows NT 10.0; Win64; x64) AppleWebKit/537.36 (KHTML, like Gecko) draw.io/22.1.18 Chrome/120.0.6099.199 Electron/28.1.2 Safari/537.36" etag="q7G65wdte4wgx_ZbHLFb" version="22.1.18" type="device" pages="3">
  <diagram name="Binary Tree" id="Wbsw4pC8gmJd9RLAaw9m">
    <mxGraphModel dx="1326" dy="925" grid="1" gridSize="10" guides="1" tooltips="1" connect="1" arrows="1" fold="1" page="1" pageScale="1" pageWidth="850" pageHeight="1100" math="0" shadow="0">
      <root>
        <mxCell id="0" />
        <mxCell id="1" parent="0" />
        <mxCell id="BzmTRtQpk6DVwsqv7AjQ-21" style="edgeStyle=orthogonalEdgeStyle;rounded=0;orthogonalLoop=1;jettySize=auto;html=1;exitX=0.5;exitY=1;exitDx=0;exitDy=0;entryX=0.5;entryY=0;entryDx=0;entryDy=0;curved=1;" edge="1" parent="1" source="BzmTRtQpk6DVwsqv7AjQ-2" target="BzmTRtQpk6DVwsqv7AjQ-8">
          <mxGeometry relative="1" as="geometry" />
        </mxCell>
        <mxCell id="BzmTRtQpk6DVwsqv7AjQ-22" style="edgeStyle=orthogonalEdgeStyle;rounded=0;orthogonalLoop=1;jettySize=auto;html=1;exitX=0.5;exitY=1;exitDx=0;exitDy=0;entryX=0.5;entryY=0;entryDx=0;entryDy=0;curved=1;" edge="1" parent="1" source="BzmTRtQpk6DVwsqv7AjQ-2" target="BzmTRtQpk6DVwsqv7AjQ-7">
          <mxGeometry relative="1" as="geometry" />
        </mxCell>
        <mxCell id="BzmTRtQpk6DVwsqv7AjQ-2" value="&lt;font style=&quot;font-size: 18px;&quot;&gt;&lt;b&gt;N3&lt;/b&gt;&lt;/font&gt;" style="ellipse;whiteSpace=wrap;html=1;aspect=fixed;" vertex="1" parent="1">
          <mxGeometry x="520" y="240" width="40" height="40" as="geometry" />
        </mxCell>
        <mxCell id="BzmTRtQpk6DVwsqv7AjQ-11" style="edgeStyle=orthogonalEdgeStyle;rounded=0;orthogonalLoop=1;jettySize=auto;html=1;exitX=0.5;exitY=1;exitDx=0;exitDy=0;entryX=0.5;entryY=0;entryDx=0;entryDy=0;curved=1;" edge="1" parent="1" source="BzmTRtQpk6DVwsqv7AjQ-3" target="BzmTRtQpk6DVwsqv7AjQ-4">
          <mxGeometry relative="1" as="geometry" />
        </mxCell>
        <mxCell id="BzmTRtQpk6DVwsqv7AjQ-12" style="edgeStyle=orthogonalEdgeStyle;rounded=0;orthogonalLoop=1;jettySize=auto;html=1;exitX=0.5;exitY=1;exitDx=0;exitDy=0;entryX=0.5;entryY=0;entryDx=0;entryDy=0;curved=1;" edge="1" parent="1" source="BzmTRtQpk6DVwsqv7AjQ-3" target="BzmTRtQpk6DVwsqv7AjQ-2">
          <mxGeometry relative="1" as="geometry" />
        </mxCell>
        <mxCell id="BzmTRtQpk6DVwsqv7AjQ-3" value="&lt;font style=&quot;font-size: 18px;&quot;&gt;&lt;b&gt;N1&lt;/b&gt;&lt;/font&gt;" style="ellipse;whiteSpace=wrap;html=1;aspect=fixed;" vertex="1" parent="1">
          <mxGeometry x="400" y="120" width="40" height="40" as="geometry" />
        </mxCell>
        <mxCell id="BzmTRtQpk6DVwsqv7AjQ-19" style="edgeStyle=orthogonalEdgeStyle;rounded=0;orthogonalLoop=1;jettySize=auto;html=1;exitX=0.5;exitY=1;exitDx=0;exitDy=0;entryX=0.5;entryY=0;entryDx=0;entryDy=0;curved=1;" edge="1" parent="1" source="BzmTRtQpk6DVwsqv7AjQ-4" target="BzmTRtQpk6DVwsqv7AjQ-6">
          <mxGeometry relative="1" as="geometry" />
        </mxCell>
        <mxCell id="BzmTRtQpk6DVwsqv7AjQ-20" style="edgeStyle=orthogonalEdgeStyle;rounded=0;orthogonalLoop=1;jettySize=auto;html=1;exitX=0.5;exitY=1;exitDx=0;exitDy=0;entryX=0.5;entryY=0;entryDx=0;entryDy=0;curved=1;" edge="1" parent="1" source="BzmTRtQpk6DVwsqv7AjQ-4" target="BzmTRtQpk6DVwsqv7AjQ-5">
          <mxGeometry relative="1" as="geometry" />
        </mxCell>
        <mxCell id="BzmTRtQpk6DVwsqv7AjQ-4" value="&lt;font style=&quot;font-size: 18px;&quot;&gt;&lt;b&gt;N2&lt;/b&gt;&lt;/font&gt;" style="ellipse;whiteSpace=wrap;html=1;aspect=fixed;" vertex="1" parent="1">
          <mxGeometry x="280" y="240" width="40" height="40" as="geometry" />
        </mxCell>
        <mxCell id="BzmTRtQpk6DVwsqv7AjQ-5" value="&lt;font style=&quot;font-size: 18px;&quot;&gt;&lt;b&gt;N5&lt;/b&gt;&lt;/font&gt;" style="ellipse;whiteSpace=wrap;html=1;aspect=fixed;" vertex="1" parent="1">
          <mxGeometry x="360" y="360" width="40" height="40" as="geometry" />
        </mxCell>
        <mxCell id="BzmTRtQpk6DVwsqv7AjQ-15" style="edgeStyle=orthogonalEdgeStyle;rounded=0;orthogonalLoop=1;jettySize=auto;html=1;exitX=0.5;exitY=1;exitDx=0;exitDy=0;entryX=0.5;entryY=0;entryDx=0;entryDy=0;curved=1;" edge="1" parent="1" source="BzmTRtQpk6DVwsqv7AjQ-6" target="BzmTRtQpk6DVwsqv7AjQ-10">
          <mxGeometry relative="1" as="geometry" />
        </mxCell>
        <mxCell id="BzmTRtQpk6DVwsqv7AjQ-16" style="edgeStyle=orthogonalEdgeStyle;rounded=0;orthogonalLoop=1;jettySize=auto;html=1;exitX=0.5;exitY=1;exitDx=0;exitDy=0;entryX=0.5;entryY=0;entryDx=0;entryDy=0;curved=1;" edge="1" parent="1" source="BzmTRtQpk6DVwsqv7AjQ-6" target="BzmTRtQpk6DVwsqv7AjQ-9">
          <mxGeometry relative="1" as="geometry" />
        </mxCell>
        <mxCell id="BzmTRtQpk6DVwsqv7AjQ-6" value="&lt;font style=&quot;font-size: 18px;&quot;&gt;&lt;b&gt;N4&lt;/b&gt;&lt;/font&gt;" style="ellipse;whiteSpace=wrap;html=1;aspect=fixed;" vertex="1" parent="1">
          <mxGeometry x="200" y="360" width="40" height="40" as="geometry" />
        </mxCell>
        <mxCell id="BzmTRtQpk6DVwsqv7AjQ-7" value="&lt;font style=&quot;font-size: 18px;&quot;&gt;&lt;b&gt;N7&lt;/b&gt;&lt;/font&gt;" style="ellipse;whiteSpace=wrap;html=1;aspect=fixed;" vertex="1" parent="1">
          <mxGeometry x="600" y="360" width="40" height="40" as="geometry" />
        </mxCell>
        <mxCell id="BzmTRtQpk6DVwsqv7AjQ-8" value="&lt;font style=&quot;font-size: 18px;&quot;&gt;&lt;b&gt;N6&lt;/b&gt;&lt;/font&gt;" style="ellipse;whiteSpace=wrap;html=1;aspect=fixed;" vertex="1" parent="1">
          <mxGeometry x="440" y="360" width="40" height="40" as="geometry" />
        </mxCell>
        <mxCell id="BzmTRtQpk6DVwsqv7AjQ-9" value="&lt;font style=&quot;font-size: 18px;&quot;&gt;&lt;b&gt;N9&lt;/b&gt;&lt;/font&gt;" style="ellipse;whiteSpace=wrap;html=1;aspect=fixed;" vertex="1" parent="1">
          <mxGeometry x="280" y="480" width="40" height="40" as="geometry" />
        </mxCell>
        <mxCell id="BzmTRtQpk6DVwsqv7AjQ-10" value="&lt;font style=&quot;font-size: 18px;&quot;&gt;&lt;b&gt;N8&lt;/b&gt;&lt;/font&gt;" style="ellipse;whiteSpace=wrap;html=1;aspect=fixed;" vertex="1" parent="1">
          <mxGeometry x="120" y="480" width="40" height="40" as="geometry" />
        </mxCell>
        <mxCell id="BzmTRtQpk6DVwsqv7AjQ-23" value="Text" style="text;html=1;strokeColor=none;fillColor=none;align=center;verticalAlign=middle;whiteSpace=wrap;rounded=0;" vertex="1" parent="1">
          <mxGeometry x="650" y="590" width="60" height="30" as="geometry" />
        </mxCell>
      </root>
    </mxGraphModel>
  </diagram>
  <diagram id="CRDWhAFI0jWtIr5zI2b_" name="Pre Order Traversal">
    <mxGraphModel dx="1326" dy="1150" grid="1" gridSize="10" guides="1" tooltips="1" connect="1" arrows="1" fold="1" page="1" pageScale="1" pageWidth="850" pageHeight="1100" math="0" shadow="0">
      <root>
        <mxCell id="0" />
        <mxCell id="1" parent="0" />
        <mxCell id="Vmcw639BJfn0D3D9I1aK-1" style="edgeStyle=orthogonalEdgeStyle;rounded=0;orthogonalLoop=1;jettySize=auto;html=1;exitX=0.5;exitY=1;exitDx=0;exitDy=0;entryX=0.5;entryY=0;entryDx=0;entryDy=0;curved=1;" edge="1" parent="1" source="Vmcw639BJfn0D3D9I1aK-3" target="Vmcw639BJfn0D3D9I1aK-15">
          <mxGeometry relative="1" as="geometry" />
        </mxCell>
        <mxCell id="Vmcw639BJfn0D3D9I1aK-2" style="edgeStyle=orthogonalEdgeStyle;rounded=0;orthogonalLoop=1;jettySize=auto;html=1;exitX=0.5;exitY=1;exitDx=0;exitDy=0;entryX=0.5;entryY=0;entryDx=0;entryDy=0;curved=1;" edge="1" parent="1" source="Vmcw639BJfn0D3D9I1aK-3" target="Vmcw639BJfn0D3D9I1aK-14">
          <mxGeometry relative="1" as="geometry" />
        </mxCell>
        <mxCell id="Vmcw639BJfn0D3D9I1aK-3" value="&lt;font style=&quot;font-size: 18px;&quot;&gt;&lt;b&gt;N3&lt;/b&gt;&lt;/font&gt;" style="ellipse;whiteSpace=wrap;html=1;aspect=fixed;" vertex="1" parent="1">
          <mxGeometry x="520" y="240" width="40" height="40" as="geometry" />
        </mxCell>
        <mxCell id="Vmcw639BJfn0D3D9I1aK-4" style="edgeStyle=orthogonalEdgeStyle;rounded=0;orthogonalLoop=1;jettySize=auto;html=1;exitX=0.5;exitY=1;exitDx=0;exitDy=0;entryX=0.5;entryY=0;entryDx=0;entryDy=0;curved=1;" edge="1" parent="1" source="Vmcw639BJfn0D3D9I1aK-6" target="Vmcw639BJfn0D3D9I1aK-9">
          <mxGeometry relative="1" as="geometry" />
        </mxCell>
        <mxCell id="Vmcw639BJfn0D3D9I1aK-5" style="edgeStyle=orthogonalEdgeStyle;rounded=0;orthogonalLoop=1;jettySize=auto;html=1;exitX=0.5;exitY=1;exitDx=0;exitDy=0;entryX=0.5;entryY=0;entryDx=0;entryDy=0;curved=1;" edge="1" parent="1" source="Vmcw639BJfn0D3D9I1aK-6" target="Vmcw639BJfn0D3D9I1aK-3">
          <mxGeometry relative="1" as="geometry" />
        </mxCell>
        <mxCell id="Vmcw639BJfn0D3D9I1aK-6" value="&lt;font style=&quot;font-size: 18px;&quot;&gt;&lt;b&gt;N1&lt;/b&gt;&lt;/font&gt;" style="ellipse;whiteSpace=wrap;html=1;aspect=fixed;" vertex="1" parent="1">
          <mxGeometry x="400" y="120" width="40" height="40" as="geometry" />
        </mxCell>
        <mxCell id="Vmcw639BJfn0D3D9I1aK-7" style="edgeStyle=orthogonalEdgeStyle;rounded=0;orthogonalLoop=1;jettySize=auto;html=1;exitX=0.5;exitY=1;exitDx=0;exitDy=0;entryX=0.5;entryY=0;entryDx=0;entryDy=0;curved=1;" edge="1" parent="1" source="Vmcw639BJfn0D3D9I1aK-9" target="Vmcw639BJfn0D3D9I1aK-13">
          <mxGeometry relative="1" as="geometry" />
        </mxCell>
        <mxCell id="Vmcw639BJfn0D3D9I1aK-8" style="edgeStyle=orthogonalEdgeStyle;rounded=0;orthogonalLoop=1;jettySize=auto;html=1;exitX=0.5;exitY=1;exitDx=0;exitDy=0;entryX=0.5;entryY=0;entryDx=0;entryDy=0;curved=1;" edge="1" parent="1" source="Vmcw639BJfn0D3D9I1aK-9" target="Vmcw639BJfn0D3D9I1aK-10">
          <mxGeometry relative="1" as="geometry" />
        </mxCell>
        <mxCell id="Vmcw639BJfn0D3D9I1aK-9" value="&lt;font style=&quot;font-size: 18px;&quot;&gt;&lt;b&gt;N2&lt;/b&gt;&lt;/font&gt;" style="ellipse;whiteSpace=wrap;html=1;aspect=fixed;" vertex="1" parent="1">
          <mxGeometry x="280" y="240" width="40" height="40" as="geometry" />
        </mxCell>
        <mxCell id="Vmcw639BJfn0D3D9I1aK-10" value="&lt;font style=&quot;font-size: 18px;&quot;&gt;&lt;b&gt;N5&lt;/b&gt;&lt;/font&gt;" style="ellipse;whiteSpace=wrap;html=1;aspect=fixed;" vertex="1" parent="1">
          <mxGeometry x="360" y="360" width="40" height="40" as="geometry" />
        </mxCell>
        <mxCell id="Vmcw639BJfn0D3D9I1aK-11" style="edgeStyle=orthogonalEdgeStyle;rounded=0;orthogonalLoop=1;jettySize=auto;html=1;exitX=0.5;exitY=1;exitDx=0;exitDy=0;entryX=0.5;entryY=0;entryDx=0;entryDy=0;curved=1;" edge="1" parent="1" source="Vmcw639BJfn0D3D9I1aK-13" target="Vmcw639BJfn0D3D9I1aK-17">
          <mxGeometry relative="1" as="geometry" />
        </mxCell>
        <mxCell id="Vmcw639BJfn0D3D9I1aK-12" style="edgeStyle=orthogonalEdgeStyle;rounded=0;orthogonalLoop=1;jettySize=auto;html=1;exitX=0.5;exitY=1;exitDx=0;exitDy=0;entryX=0.5;entryY=0;entryDx=0;entryDy=0;curved=1;" edge="1" parent="1" source="Vmcw639BJfn0D3D9I1aK-13" target="Vmcw639BJfn0D3D9I1aK-16">
          <mxGeometry relative="1" as="geometry" />
        </mxCell>
        <mxCell id="Vmcw639BJfn0D3D9I1aK-13" value="&lt;font style=&quot;font-size: 18px;&quot;&gt;&lt;b&gt;N4&lt;/b&gt;&lt;/font&gt;" style="ellipse;whiteSpace=wrap;html=1;aspect=fixed;" vertex="1" parent="1">
          <mxGeometry x="200" y="360" width="40" height="40" as="geometry" />
        </mxCell>
        <mxCell id="Vmcw639BJfn0D3D9I1aK-14" value="&lt;font style=&quot;font-size: 18px;&quot;&gt;&lt;b&gt;N7&lt;/b&gt;&lt;/font&gt;" style="ellipse;whiteSpace=wrap;html=1;aspect=fixed;" vertex="1" parent="1">
          <mxGeometry x="600" y="360" width="40" height="40" as="geometry" />
        </mxCell>
        <mxCell id="Vmcw639BJfn0D3D9I1aK-15" value="&lt;font style=&quot;font-size: 18px;&quot;&gt;&lt;b&gt;N6&lt;/b&gt;&lt;/font&gt;" style="ellipse;whiteSpace=wrap;html=1;aspect=fixed;" vertex="1" parent="1">
          <mxGeometry x="440" y="360" width="40" height="40" as="geometry" />
        </mxCell>
        <mxCell id="Vmcw639BJfn0D3D9I1aK-16" value="&lt;font style=&quot;font-size: 18px;&quot;&gt;&lt;b&gt;N9&lt;/b&gt;&lt;/font&gt;" style="ellipse;whiteSpace=wrap;html=1;aspect=fixed;" vertex="1" parent="1">
          <mxGeometry x="280" y="480" width="40" height="40" as="geometry" />
        </mxCell>
        <mxCell id="Vmcw639BJfn0D3D9I1aK-17" value="&lt;font style=&quot;font-size: 18px;&quot;&gt;&lt;b&gt;N8&lt;/b&gt;&lt;/font&gt;" style="ellipse;whiteSpace=wrap;html=1;aspect=fixed;" vertex="1" parent="1">
          <mxGeometry x="120" y="480" width="40" height="40" as="geometry" />
        </mxCell>
        <mxCell id="Vmcw639BJfn0D3D9I1aK-18" value="&lt;font style=&quot;font-size: 14px;&quot;&gt;Pre Order Traversal (N1)&lt;/font&gt;" style="text;html=1;strokeColor=none;fillColor=none;align=left;verticalAlign=middle;whiteSpace=wrap;rounded=0;" vertex="1" parent="1">
          <mxGeometry x="320" y="710" width="180" height="30" as="geometry" />
        </mxCell>
        <mxCell id="Vmcw639BJfn0D3D9I1aK-19" value="&lt;font style=&quot;font-size: 14px;&quot;&gt;Pre Order Traversal (N4)&lt;/font&gt;" style="text;html=1;strokeColor=none;fillColor=none;align=left;verticalAlign=middle;whiteSpace=wrap;rounded=0;" vertex="1" parent="1">
          <mxGeometry x="400" y="770" width="180" height="30" as="geometry" />
        </mxCell>
        <mxCell id="Vmcw639BJfn0D3D9I1aK-20" value="&lt;font style=&quot;font-size: 14px;&quot;&gt;Pre Order Traversal (N2)&lt;/font&gt;" style="text;html=1;strokeColor=none;fillColor=none;align=left;verticalAlign=middle;whiteSpace=wrap;rounded=0;" vertex="1" parent="1">
          <mxGeometry x="360" y="740" width="180" height="30" as="geometry" />
        </mxCell>
        <mxCell id="Vmcw639BJfn0D3D9I1aK-21" value="&lt;font style=&quot;font-size: 14px;&quot;&gt;Pre Order Traversal (N8)&lt;/font&gt;" style="text;html=1;strokeColor=none;fillColor=none;align=left;verticalAlign=middle;whiteSpace=wrap;rounded=0;fontColor=#0000CC;" vertex="1" parent="1">
          <mxGeometry x="440" y="800" width="180" height="30" as="geometry" />
        </mxCell>
        <mxCell id="Vmcw639BJfn0D3D9I1aK-22" value="&lt;font style=&quot;font-size: 14px;&quot;&gt;Pre Order Traversal (N9)&lt;/font&gt;" style="text;html=1;strokeColor=none;fillColor=none;align=left;verticalAlign=middle;whiteSpace=wrap;rounded=0;fontColor=#990000;" vertex="1" parent="1">
          <mxGeometry x="440" y="830" width="180" height="30" as="geometry" />
        </mxCell>
        <mxCell id="Vmcw639BJfn0D3D9I1aK-23" value="&lt;font style=&quot;font-size: 14px;&quot;&gt;Pre Order Traversal (N5)&lt;/font&gt;" style="text;html=1;strokeColor=none;fillColor=none;align=left;verticalAlign=middle;whiteSpace=wrap;rounded=0;fontColor=#990000;" vertex="1" parent="1">
          <mxGeometry x="400" y="860" width="180" height="30" as="geometry" />
        </mxCell>
        <mxCell id="Vmcw639BJfn0D3D9I1aK-24" value="&lt;font style=&quot;font-size: 14px;&quot;&gt;Pre Order Traversal (N3)&lt;/font&gt;" style="text;html=1;strokeColor=none;fillColor=none;align=left;verticalAlign=middle;whiteSpace=wrap;rounded=0;" vertex="1" parent="1">
          <mxGeometry x="360" y="890" width="180" height="30" as="geometry" />
        </mxCell>
        <mxCell id="Vmcw639BJfn0D3D9I1aK-25" value="&lt;font style=&quot;font-size: 14px;&quot;&gt;Pre Order Traversal (N7)&lt;/font&gt;" style="text;html=1;strokeColor=none;fillColor=none;align=left;verticalAlign=middle;whiteSpace=wrap;rounded=0;fontColor=#990000;" vertex="1" parent="1">
          <mxGeometry x="400" y="950" width="180" height="30" as="geometry" />
        </mxCell>
        <mxCell id="Vmcw639BJfn0D3D9I1aK-26" value="&lt;font style=&quot;font-size: 14px;&quot;&gt;Pre Order Traversal (N6)&lt;/font&gt;" style="text;html=1;strokeColor=none;fillColor=none;align=left;verticalAlign=middle;whiteSpace=wrap;rounded=0;fontColor=#0000CC;" vertex="1" parent="1">
          <mxGeometry x="400" y="920" width="180" height="30" as="geometry" />
        </mxCell>
        <mxCell id="Vmcw639BJfn0D3D9I1aK-31" value="&lt;b&gt;&lt;font style=&quot;font-size: 14px;&quot;&gt;Call Stack&lt;/font&gt;&lt;/b&gt;" style="text;html=1;strokeColor=none;fillColor=none;align=left;verticalAlign=middle;whiteSpace=wrap;rounded=0;" vertex="1" parent="1">
          <mxGeometry x="320" y="680" width="120" height="30" as="geometry" />
        </mxCell>
        <mxCell id="KwuTQbKOqqDD-mBBrY8_-1" value="&lt;b&gt;&lt;font style=&quot;font-size: 14px;&quot;&gt;Print Order&lt;/font&gt;&lt;/b&gt;" style="text;html=1;strokeColor=none;fillColor=none;align=left;verticalAlign=middle;whiteSpace=wrap;rounded=0;" vertex="1" parent="1">
          <mxGeometry x="760" y="680" width="80" height="30" as="geometry" />
        </mxCell>
        <mxCell id="uAJ2r4k0052bl4PFCy18-1" value="&lt;font style=&quot;font-size: 14px;&quot;&gt;N1&lt;/font&gt;" style="text;html=1;strokeColor=none;fillColor=none;align=center;verticalAlign=middle;whiteSpace=wrap;rounded=0;" vertex="1" parent="1">
          <mxGeometry x="780" y="710" width="60" height="30" as="geometry" />
        </mxCell>
        <mxCell id="uAJ2r4k0052bl4PFCy18-2" value="&lt;font style=&quot;font-size: 14px;&quot;&gt;N7&lt;/font&gt;" style="text;html=1;strokeColor=none;fillColor=none;align=center;verticalAlign=middle;whiteSpace=wrap;rounded=0;" vertex="1" parent="1">
          <mxGeometry x="780" y="950" width="60" height="30" as="geometry" />
        </mxCell>
        <mxCell id="uAJ2r4k0052bl4PFCy18-3" value="&lt;font style=&quot;font-size: 14px;&quot;&gt;N6&lt;/font&gt;" style="text;html=1;strokeColor=none;fillColor=none;align=center;verticalAlign=middle;whiteSpace=wrap;rounded=0;" vertex="1" parent="1">
          <mxGeometry x="780" y="920" width="60" height="30" as="geometry" />
        </mxCell>
        <mxCell id="uAJ2r4k0052bl4PFCy18-4" value="&lt;font style=&quot;font-size: 14px;&quot;&gt;N3&lt;/font&gt;" style="text;html=1;strokeColor=none;fillColor=none;align=center;verticalAlign=middle;whiteSpace=wrap;rounded=0;" vertex="1" parent="1">
          <mxGeometry x="780" y="890" width="60" height="30" as="geometry" />
        </mxCell>
        <mxCell id="uAJ2r4k0052bl4PFCy18-5" value="&lt;font style=&quot;font-size: 14px;&quot;&gt;N5&lt;/font&gt;" style="text;html=1;strokeColor=none;fillColor=none;align=center;verticalAlign=middle;whiteSpace=wrap;rounded=0;" vertex="1" parent="1">
          <mxGeometry x="780" y="860" width="60" height="30" as="geometry" />
        </mxCell>
        <mxCell id="uAJ2r4k0052bl4PFCy18-6" value="&lt;font style=&quot;font-size: 14px;&quot;&gt;N9&lt;/font&gt;" style="text;html=1;strokeColor=none;fillColor=none;align=center;verticalAlign=middle;whiteSpace=wrap;rounded=0;" vertex="1" parent="1">
          <mxGeometry x="780" y="830" width="60" height="30" as="geometry" />
        </mxCell>
        <mxCell id="uAJ2r4k0052bl4PFCy18-7" value="&lt;font style=&quot;font-size: 14px;&quot;&gt;N8&lt;/font&gt;" style="text;html=1;strokeColor=none;fillColor=none;align=center;verticalAlign=middle;whiteSpace=wrap;rounded=0;" vertex="1" parent="1">
          <mxGeometry x="780" y="800" width="60" height="30" as="geometry" />
        </mxCell>
        <mxCell id="uAJ2r4k0052bl4PFCy18-8" value="&lt;font style=&quot;font-size: 14px;&quot;&gt;N4&lt;/font&gt;" style="text;html=1;strokeColor=none;fillColor=none;align=center;verticalAlign=middle;whiteSpace=wrap;rounded=0;" vertex="1" parent="1">
          <mxGeometry x="780" y="770" width="60" height="30" as="geometry" />
        </mxCell>
        <mxCell id="uAJ2r4k0052bl4PFCy18-9" value="&lt;font style=&quot;font-size: 14px;&quot;&gt;N2&lt;/font&gt;" style="text;html=1;strokeColor=none;fillColor=none;align=center;verticalAlign=middle;whiteSpace=wrap;rounded=0;" vertex="1" parent="1">
          <mxGeometry x="780" y="740" width="60" height="30" as="geometry" />
        </mxCell>
        <mxCell id="uAJ2r4k0052bl4PFCy18-11" value="&lt;b&gt;&lt;font style=&quot;font-size: 14px;&quot;&gt;Execution Order&lt;/font&gt;&lt;/b&gt;" style="text;html=1;strokeColor=none;fillColor=none;align=left;verticalAlign=middle;whiteSpace=wrap;rounded=0;" vertex="1" parent="1">
          <mxGeometry y="680" width="120" height="30" as="geometry" />
        </mxCell>
        <mxCell id="uAJ2r4k0052bl4PFCy18-12" value="&lt;span style=&quot;font-size: 14px;&quot;&gt;Print, L, R&lt;/span&gt;" style="text;html=1;strokeColor=none;fillColor=none;align=left;verticalAlign=middle;whiteSpace=wrap;rounded=0;" vertex="1" parent="1">
          <mxGeometry y="700" width="180" height="30" as="geometry" />
        </mxCell>
        <mxCell id="L6SuLmvwpRzfO34ch-Mo-1" value="&lt;i&gt;First&amp;nbsp; print is here&lt;/i&gt;" style="text;html=1;strokeColor=none;fillColor=none;align=center;verticalAlign=middle;whiteSpace=wrap;rounded=0;" vertex="1" parent="1">
          <mxGeometry x="480" y="710" width="110" height="30" as="geometry" />
        </mxCell>
        <mxCell id="L6SuLmvwpRzfO34ch-Mo-2" value="&lt;i&gt;Second&amp;nbsp; print is here&lt;/i&gt;" style="text;html=1;strokeColor=none;fillColor=none;align=center;verticalAlign=middle;whiteSpace=wrap;rounded=0;" vertex="1" parent="1">
          <mxGeometry x="520" y="740" width="120" height="30" as="geometry" />
        </mxCell>
        <mxCell id="1HP_09YsDBTGnqU6CUNT-1" value="&lt;i&gt;Third print is here&lt;/i&gt;" style="text;html=1;strokeColor=none;fillColor=none;align=center;verticalAlign=middle;whiteSpace=wrap;rounded=0;" vertex="1" parent="1">
          <mxGeometry x="560" y="770" width="120" height="30" as="geometry" />
        </mxCell>
        <mxCell id="2sqAitQs_xXeEnmssB5O-1" value="&lt;div style=&quot;font-size: 14px;&quot;&gt;&lt;font style=&quot;font-size: 14px;&quot; face=&quot;Courier New&quot;&gt;def preOrderTraversal(rootNode):&lt;/font&gt;&lt;/div&gt;&lt;div style=&quot;font-size: 14px;&quot;&gt;&lt;font face=&quot;Courier New&quot; style=&quot;font-size: 14px;&quot;&gt;&amp;nbsp; if not rootNode:&lt;/font&gt;&lt;/div&gt;&lt;div style=&quot;font-size: 14px;&quot;&gt;&lt;font face=&quot;jH0gePpwhJGIjAXemurN&quot; style=&quot;font-size: 14px;&quot;&gt;&amp;nbsp; &amp;nbsp; &amp;nbsp; &amp;nbsp;&lt;/font&gt;&lt;font face=&quot;Courier New&quot; style=&quot;font-size: 14px;&quot;&gt; return&lt;/font&gt;&lt;/div&gt;&lt;div style=&quot;font-size: 14px;&quot;&gt;&lt;font face=&quot;jH0gePpwhJGIjAXemurN&quot; style=&quot;font-size: 14px;&quot;&gt;&amp;nbsp; &amp;nbsp; &amp;nbsp;&lt;/font&gt;&lt;font face=&quot;Courier New&quot; style=&quot;font-size: 14px;&quot;&gt;print(rootNode.data)&lt;/font&gt;&lt;/div&gt;&lt;div style=&quot;font-size: 14px;&quot;&gt;&lt;font face=&quot;Courier New&quot; style=&quot;font-size: 14px;&quot;&gt;&amp;nbsp; preOrderTraversal(rootNode.leftChild)&lt;/font&gt;&lt;/div&gt;&lt;div style=&quot;font-size: 14px;&quot;&gt;&lt;font face=&quot;-dZ3absXpz2kEYb1dsJg&quot; style=&quot;font-size: 14px;&quot;&gt;&amp;nbsp; &amp;nbsp; &amp;nbsp;&lt;/font&gt;&lt;font face=&quot;Courier New&quot; style=&quot;font-size: 14px;&quot;&gt;preOrderTraversal(rootNode.rightChild)&lt;/font&gt;&lt;/div&gt;" style="text;html=1;strokeColor=none;fillColor=none;align=left;verticalAlign=middle;whiteSpace=wrap;rounded=0;" vertex="1" parent="1">
          <mxGeometry width="360" height="130" as="geometry" />
        </mxCell>
      </root>
    </mxGraphModel>
  </diagram>
  <diagram id="9KJEn_F3dsmFK5F05Zrk" name="In Order Traversal">
    <mxGraphModel dx="1326" dy="1150" grid="1" gridSize="10" guides="1" tooltips="1" connect="1" arrows="1" fold="1" page="1" pageScale="1" pageWidth="850" pageHeight="1100" math="0" shadow="0">
      <root>
        <mxCell id="0" />
        <mxCell id="1" parent="0" />
        <mxCell id="FfEwj5Lw1uhWC8rLt3FJ-1" style="edgeStyle=orthogonalEdgeStyle;rounded=0;orthogonalLoop=1;jettySize=auto;html=1;exitX=0.5;exitY=1;exitDx=0;exitDy=0;entryX=0.5;entryY=0;entryDx=0;entryDy=0;curved=1;" edge="1" parent="1" source="FfEwj5Lw1uhWC8rLt3FJ-3" target="FfEwj5Lw1uhWC8rLt3FJ-15">
          <mxGeometry relative="1" as="geometry" />
        </mxCell>
        <mxCell id="FfEwj5Lw1uhWC8rLt3FJ-2" style="edgeStyle=orthogonalEdgeStyle;rounded=0;orthogonalLoop=1;jettySize=auto;html=1;exitX=0.5;exitY=1;exitDx=0;exitDy=0;entryX=0.5;entryY=0;entryDx=0;entryDy=0;curved=1;" edge="1" parent="1" source="FfEwj5Lw1uhWC8rLt3FJ-3" target="FfEwj5Lw1uhWC8rLt3FJ-14">
          <mxGeometry relative="1" as="geometry" />
        </mxCell>
        <mxCell id="FfEwj5Lw1uhWC8rLt3FJ-3" value="&lt;font style=&quot;font-size: 18px;&quot;&gt;&lt;b&gt;N3&lt;/b&gt;&lt;/font&gt;" style="ellipse;whiteSpace=wrap;html=1;aspect=fixed;" vertex="1" parent="1">
          <mxGeometry x="520" y="240" width="40" height="40" as="geometry" />
        </mxCell>
        <mxCell id="FfEwj5Lw1uhWC8rLt3FJ-4" style="edgeStyle=orthogonalEdgeStyle;rounded=0;orthogonalLoop=1;jettySize=auto;html=1;exitX=0.5;exitY=1;exitDx=0;exitDy=0;entryX=0.5;entryY=0;entryDx=0;entryDy=0;curved=1;" edge="1" parent="1" source="FfEwj5Lw1uhWC8rLt3FJ-6" target="FfEwj5Lw1uhWC8rLt3FJ-9">
          <mxGeometry relative="1" as="geometry" />
        </mxCell>
        <mxCell id="FfEwj5Lw1uhWC8rLt3FJ-5" style="edgeStyle=orthogonalEdgeStyle;rounded=0;orthogonalLoop=1;jettySize=auto;html=1;exitX=0.5;exitY=1;exitDx=0;exitDy=0;entryX=0.5;entryY=0;entryDx=0;entryDy=0;curved=1;" edge="1" parent="1" source="FfEwj5Lw1uhWC8rLt3FJ-6" target="FfEwj5Lw1uhWC8rLt3FJ-3">
          <mxGeometry relative="1" as="geometry" />
        </mxCell>
        <mxCell id="FfEwj5Lw1uhWC8rLt3FJ-6" value="&lt;font style=&quot;font-size: 18px;&quot;&gt;&lt;b&gt;N1&lt;/b&gt;&lt;/font&gt;" style="ellipse;whiteSpace=wrap;html=1;aspect=fixed;" vertex="1" parent="1">
          <mxGeometry x="400" y="120" width="40" height="40" as="geometry" />
        </mxCell>
        <mxCell id="FfEwj5Lw1uhWC8rLt3FJ-7" style="edgeStyle=orthogonalEdgeStyle;rounded=0;orthogonalLoop=1;jettySize=auto;html=1;exitX=0.5;exitY=1;exitDx=0;exitDy=0;entryX=0.5;entryY=0;entryDx=0;entryDy=0;curved=1;" edge="1" parent="1" source="FfEwj5Lw1uhWC8rLt3FJ-9" target="FfEwj5Lw1uhWC8rLt3FJ-13">
          <mxGeometry relative="1" as="geometry" />
        </mxCell>
        <mxCell id="FfEwj5Lw1uhWC8rLt3FJ-8" style="edgeStyle=orthogonalEdgeStyle;rounded=0;orthogonalLoop=1;jettySize=auto;html=1;exitX=0.5;exitY=1;exitDx=0;exitDy=0;entryX=0.5;entryY=0;entryDx=0;entryDy=0;curved=1;" edge="1" parent="1" source="FfEwj5Lw1uhWC8rLt3FJ-9" target="FfEwj5Lw1uhWC8rLt3FJ-10">
          <mxGeometry relative="1" as="geometry" />
        </mxCell>
        <mxCell id="FfEwj5Lw1uhWC8rLt3FJ-9" value="&lt;font style=&quot;font-size: 18px;&quot;&gt;&lt;b&gt;N2&lt;/b&gt;&lt;/font&gt;" style="ellipse;whiteSpace=wrap;html=1;aspect=fixed;" vertex="1" parent="1">
          <mxGeometry x="280" y="240" width="40" height="40" as="geometry" />
        </mxCell>
        <mxCell id="FfEwj5Lw1uhWC8rLt3FJ-10" value="&lt;font style=&quot;font-size: 18px;&quot;&gt;&lt;b&gt;N5&lt;/b&gt;&lt;/font&gt;" style="ellipse;whiteSpace=wrap;html=1;aspect=fixed;" vertex="1" parent="1">
          <mxGeometry x="360" y="360" width="40" height="40" as="geometry" />
        </mxCell>
        <mxCell id="FfEwj5Lw1uhWC8rLt3FJ-11" style="edgeStyle=orthogonalEdgeStyle;rounded=0;orthogonalLoop=1;jettySize=auto;html=1;exitX=0.5;exitY=1;exitDx=0;exitDy=0;entryX=0.5;entryY=0;entryDx=0;entryDy=0;curved=1;" edge="1" parent="1" source="FfEwj5Lw1uhWC8rLt3FJ-13" target="FfEwj5Lw1uhWC8rLt3FJ-17">
          <mxGeometry relative="1" as="geometry" />
        </mxCell>
        <mxCell id="FfEwj5Lw1uhWC8rLt3FJ-12" style="edgeStyle=orthogonalEdgeStyle;rounded=0;orthogonalLoop=1;jettySize=auto;html=1;exitX=0.5;exitY=1;exitDx=0;exitDy=0;entryX=0.5;entryY=0;entryDx=0;entryDy=0;curved=1;" edge="1" parent="1" source="FfEwj5Lw1uhWC8rLt3FJ-13" target="FfEwj5Lw1uhWC8rLt3FJ-16">
          <mxGeometry relative="1" as="geometry" />
        </mxCell>
        <mxCell id="FfEwj5Lw1uhWC8rLt3FJ-13" value="&lt;font style=&quot;font-size: 18px;&quot;&gt;&lt;b&gt;N4&lt;/b&gt;&lt;/font&gt;" style="ellipse;whiteSpace=wrap;html=1;aspect=fixed;" vertex="1" parent="1">
          <mxGeometry x="200" y="360" width="40" height="40" as="geometry" />
        </mxCell>
        <mxCell id="FfEwj5Lw1uhWC8rLt3FJ-14" value="&lt;font style=&quot;font-size: 18px;&quot;&gt;&lt;b&gt;N7&lt;/b&gt;&lt;/font&gt;" style="ellipse;whiteSpace=wrap;html=1;aspect=fixed;" vertex="1" parent="1">
          <mxGeometry x="600" y="360" width="40" height="40" as="geometry" />
        </mxCell>
        <mxCell id="FfEwj5Lw1uhWC8rLt3FJ-15" value="&lt;font style=&quot;font-size: 18px;&quot;&gt;&lt;b&gt;N6&lt;/b&gt;&lt;/font&gt;" style="ellipse;whiteSpace=wrap;html=1;aspect=fixed;" vertex="1" parent="1">
          <mxGeometry x="440" y="360" width="40" height="40" as="geometry" />
        </mxCell>
        <mxCell id="FfEwj5Lw1uhWC8rLt3FJ-16" value="&lt;font style=&quot;font-size: 18px;&quot;&gt;&lt;b&gt;N9&lt;/b&gt;&lt;/font&gt;" style="ellipse;whiteSpace=wrap;html=1;aspect=fixed;" vertex="1" parent="1">
          <mxGeometry x="280" y="480" width="40" height="40" as="geometry" />
        </mxCell>
        <mxCell id="FfEwj5Lw1uhWC8rLt3FJ-17" value="&lt;font style=&quot;font-size: 18px;&quot;&gt;&lt;b&gt;N8&lt;/b&gt;&lt;/font&gt;" style="ellipse;whiteSpace=wrap;html=1;aspect=fixed;" vertex="1" parent="1">
          <mxGeometry x="120" y="480" width="40" height="40" as="geometry" />
        </mxCell>
        <mxCell id="2JAEs4Wf_Mxzt13H9wA5-1" value="&lt;font style=&quot;font-size: 14px;&quot;&gt;In Order Traversal (N1)&lt;/font&gt;" style="text;html=1;strokeColor=none;fillColor=none;align=left;verticalAlign=middle;whiteSpace=wrap;rounded=0;" vertex="1" parent="1">
          <mxGeometry x="320" y="710" width="180" height="30" as="geometry" />
        </mxCell>
        <mxCell id="2JAEs4Wf_Mxzt13H9wA5-2" value="&lt;font style=&quot;font-size: 14px;&quot;&gt;In Order Traversal (N4)&lt;/font&gt;" style="text;html=1;strokeColor=none;fillColor=none;align=left;verticalAlign=middle;whiteSpace=wrap;rounded=0;" vertex="1" parent="1">
          <mxGeometry x="400" y="770" width="180" height="30" as="geometry" />
        </mxCell>
        <mxCell id="2JAEs4Wf_Mxzt13H9wA5-3" value="&lt;font style=&quot;font-size: 14px;&quot;&gt;In Order Traversal (N2)&lt;/font&gt;" style="text;html=1;strokeColor=none;fillColor=none;align=left;verticalAlign=middle;whiteSpace=wrap;rounded=0;" vertex="1" parent="1">
          <mxGeometry x="360" y="740" width="180" height="30" as="geometry" />
        </mxCell>
        <mxCell id="2JAEs4Wf_Mxzt13H9wA5-4" value="&lt;font style=&quot;font-size: 14px;&quot;&gt;In Order Traversal (N8)&lt;/font&gt;" style="text;html=1;strokeColor=none;fillColor=none;align=left;verticalAlign=middle;whiteSpace=wrap;rounded=0;fontColor=#0000CC;" vertex="1" parent="1">
          <mxGeometry x="440" y="800" width="180" height="30" as="geometry" />
        </mxCell>
        <mxCell id="2JAEs4Wf_Mxzt13H9wA5-5" value="&lt;font style=&quot;font-size: 14px;&quot;&gt;In Order Traversal (N9)&lt;/font&gt;" style="text;html=1;strokeColor=none;fillColor=none;align=left;verticalAlign=middle;whiteSpace=wrap;rounded=0;fontColor=#990000;" vertex="1" parent="1">
          <mxGeometry x="440" y="830" width="180" height="30" as="geometry" />
        </mxCell>
        <mxCell id="2JAEs4Wf_Mxzt13H9wA5-6" value="&lt;font style=&quot;font-size: 14px;&quot;&gt;In Order Traversal (N5)&lt;/font&gt;" style="text;html=1;strokeColor=none;fillColor=none;align=left;verticalAlign=middle;whiteSpace=wrap;rounded=0;fontColor=#990000;" vertex="1" parent="1">
          <mxGeometry x="400" y="860" width="180" height="30" as="geometry" />
        </mxCell>
        <mxCell id="2JAEs4Wf_Mxzt13H9wA5-7" value="&lt;font style=&quot;font-size: 14px;&quot;&gt;In Order Traversal (N3)&lt;/font&gt;" style="text;html=1;strokeColor=none;fillColor=none;align=left;verticalAlign=middle;whiteSpace=wrap;rounded=0;" vertex="1" parent="1">
          <mxGeometry x="360" y="890" width="180" height="30" as="geometry" />
        </mxCell>
        <mxCell id="2JAEs4Wf_Mxzt13H9wA5-8" value="&lt;font style=&quot;font-size: 14px;&quot;&gt;In Order Traversal (N7)&lt;/font&gt;" style="text;html=1;strokeColor=none;fillColor=none;align=left;verticalAlign=middle;whiteSpace=wrap;rounded=0;fontColor=#990000;" vertex="1" parent="1">
          <mxGeometry x="400" y="950" width="180" height="30" as="geometry" />
        </mxCell>
        <mxCell id="2JAEs4Wf_Mxzt13H9wA5-9" value="&lt;font style=&quot;font-size: 14px;&quot;&gt;In Order Traversal (N6)&lt;/font&gt;" style="text;html=1;strokeColor=none;fillColor=none;align=left;verticalAlign=middle;whiteSpace=wrap;rounded=0;fontColor=#0000CC;" vertex="1" parent="1">
          <mxGeometry x="400" y="920" width="180" height="30" as="geometry" />
        </mxCell>
        <mxCell id="2JAEs4Wf_Mxzt13H9wA5-10" value="&lt;b&gt;&lt;font style=&quot;font-size: 14px;&quot;&gt;Call Stack&lt;/font&gt;&lt;/b&gt;" style="text;html=1;strokeColor=none;fillColor=none;align=left;verticalAlign=middle;whiteSpace=wrap;rounded=0;" vertex="1" parent="1">
          <mxGeometry x="320" y="680" width="120" height="30" as="geometry" />
        </mxCell>
        <mxCell id="2JAEs4Wf_Mxzt13H9wA5-11" value="&lt;b&gt;&lt;font style=&quot;font-size: 14px;&quot;&gt;Print Order&lt;/font&gt;&lt;/b&gt;" style="text;html=1;strokeColor=none;fillColor=none;align=left;verticalAlign=middle;whiteSpace=wrap;rounded=0;" vertex="1" parent="1">
          <mxGeometry x="760" y="680" width="80" height="30" as="geometry" />
        </mxCell>
        <mxCell id="2JAEs4Wf_Mxzt13H9wA5-12" value="&lt;font style=&quot;font-size: 14px;&quot;&gt;N8&lt;/font&gt;" style="text;html=1;strokeColor=none;fillColor=none;align=center;verticalAlign=middle;whiteSpace=wrap;rounded=0;" vertex="1" parent="1">
          <mxGeometry x="780" y="710" width="60" height="30" as="geometry" />
        </mxCell>
        <mxCell id="2JAEs4Wf_Mxzt13H9wA5-13" value="&lt;font style=&quot;font-size: 14px;&quot;&gt;N7&lt;/font&gt;" style="text;html=1;strokeColor=none;fillColor=none;align=center;verticalAlign=middle;whiteSpace=wrap;rounded=0;" vertex="1" parent="1">
          <mxGeometry x="780" y="950" width="60" height="30" as="geometry" />
        </mxCell>
        <mxCell id="2JAEs4Wf_Mxzt13H9wA5-14" value="&lt;font style=&quot;font-size: 14px;&quot;&gt;N3&lt;/font&gt;" style="text;html=1;strokeColor=none;fillColor=none;align=center;verticalAlign=middle;whiteSpace=wrap;rounded=0;" vertex="1" parent="1">
          <mxGeometry x="780" y="920" width="60" height="30" as="geometry" />
        </mxCell>
        <mxCell id="2JAEs4Wf_Mxzt13H9wA5-15" value="&lt;font style=&quot;font-size: 14px;&quot;&gt;N6&lt;/font&gt;" style="text;html=1;strokeColor=none;fillColor=none;align=center;verticalAlign=middle;whiteSpace=wrap;rounded=0;" vertex="1" parent="1">
          <mxGeometry x="780" y="890" width="60" height="30" as="geometry" />
        </mxCell>
        <mxCell id="2JAEs4Wf_Mxzt13H9wA5-16" value="&lt;font style=&quot;font-size: 14px;&quot;&gt;N1&lt;/font&gt;" style="text;html=1;strokeColor=none;fillColor=none;align=center;verticalAlign=middle;whiteSpace=wrap;rounded=0;" vertex="1" parent="1">
          <mxGeometry x="780" y="860" width="60" height="30" as="geometry" />
        </mxCell>
        <mxCell id="2JAEs4Wf_Mxzt13H9wA5-17" value="&lt;font style=&quot;font-size: 14px;&quot;&gt;N5&lt;/font&gt;" style="text;html=1;strokeColor=none;fillColor=none;align=center;verticalAlign=middle;whiteSpace=wrap;rounded=0;" vertex="1" parent="1">
          <mxGeometry x="780" y="830" width="60" height="30" as="geometry" />
        </mxCell>
        <mxCell id="2JAEs4Wf_Mxzt13H9wA5-18" value="&lt;font style=&quot;font-size: 14px;&quot;&gt;N2&lt;/font&gt;" style="text;html=1;strokeColor=none;fillColor=none;align=center;verticalAlign=middle;whiteSpace=wrap;rounded=0;" vertex="1" parent="1">
          <mxGeometry x="780" y="800" width="60" height="30" as="geometry" />
        </mxCell>
        <mxCell id="2JAEs4Wf_Mxzt13H9wA5-19" value="&lt;font style=&quot;font-size: 14px;&quot;&gt;N9&lt;/font&gt;" style="text;html=1;strokeColor=none;fillColor=none;align=center;verticalAlign=middle;whiteSpace=wrap;rounded=0;" vertex="1" parent="1">
          <mxGeometry x="780" y="770" width="60" height="30" as="geometry" />
        </mxCell>
        <mxCell id="2JAEs4Wf_Mxzt13H9wA5-20" value="&lt;font style=&quot;font-size: 14px;&quot;&gt;N4&lt;/font&gt;" style="text;html=1;strokeColor=none;fillColor=none;align=center;verticalAlign=middle;whiteSpace=wrap;rounded=0;" vertex="1" parent="1">
          <mxGeometry x="780" y="740" width="60" height="30" as="geometry" />
        </mxCell>
        <mxCell id="2JAEs4Wf_Mxzt13H9wA5-21" value="&lt;b&gt;&lt;font style=&quot;font-size: 14px;&quot;&gt;Execution Order&lt;/font&gt;&lt;/b&gt;" style="text;html=1;strokeColor=none;fillColor=none;align=left;verticalAlign=middle;whiteSpace=wrap;rounded=0;" vertex="1" parent="1">
          <mxGeometry y="680" width="120" height="30" as="geometry" />
        </mxCell>
        <mxCell id="2JAEs4Wf_Mxzt13H9wA5-22" value="&lt;span style=&quot;font-size: 14px;&quot;&gt;L, Print, R&lt;/span&gt;" style="text;html=1;strokeColor=none;fillColor=none;align=left;verticalAlign=middle;whiteSpace=wrap;rounded=0;" vertex="1" parent="1">
          <mxGeometry y="700" width="180" height="30" as="geometry" />
        </mxCell>
        <mxCell id="2JAEs4Wf_Mxzt13H9wA5-23" value="&lt;i&gt;First&amp;nbsp; print is here&lt;/i&gt;" style="text;html=1;strokeColor=none;fillColor=none;align=center;verticalAlign=middle;whiteSpace=wrap;rounded=0;" vertex="1" parent="1">
          <mxGeometry x="600" y="800" width="110" height="30" as="geometry" />
        </mxCell>
        <mxCell id="2JAEs4Wf_Mxzt13H9wA5-24" value="&lt;i&gt;Second&amp;nbsp; print is here&lt;/i&gt;" style="text;html=1;strokeColor=none;fillColor=none;align=center;verticalAlign=middle;whiteSpace=wrap;rounded=0;" vertex="1" parent="1">
          <mxGeometry x="560" y="770" width="120" height="30" as="geometry" />
        </mxCell>
        <mxCell id="tPBqYS7-pbgM7K8zyWQB-1" value="&lt;i&gt;Third print is here&lt;/i&gt;" style="text;html=1;strokeColor=none;fillColor=none;align=center;verticalAlign=middle;whiteSpace=wrap;rounded=0;" vertex="1" parent="1">
          <mxGeometry x="600" y="830" width="120" height="30" as="geometry" />
        </mxCell>
        <mxCell id="wJrlY0tSSNZP_FcEmgv9-1" value="&lt;div style=&quot;font-size: 14px;&quot;&gt;&lt;font face=&quot;Courier New&quot; style=&quot;font-size: 14px;&quot;&gt;def inOrderTraversal(rootNode):&lt;/font&gt;&lt;/div&gt;&lt;div style=&quot;font-size: 14px;&quot;&gt;&lt;font face=&quot;Courier New&quot; style=&quot;font-size: 14px;&quot;&gt;&amp;nbsp; if not rootNode:&lt;/font&gt;&lt;/div&gt;&lt;div style=&quot;font-size: 14px;&quot;&gt;&lt;font face=&quot;jH0gePpwhJGIjAXemurN&quot; style=&quot;font-size: 14px;&quot;&gt;&amp;nbsp; &amp;nbsp; &amp;nbsp; &amp;nbsp;&lt;/font&gt;&lt;font face=&quot;Courier New&quot; style=&quot;font-size: 14px;&quot;&gt; return&lt;/font&gt;&lt;/div&gt;&lt;div style=&quot;font-size: 14px;&quot;&gt;&lt;font face=&quot;Courier New&quot; style=&quot;font-size: 14px;&quot;&gt;&amp;nbsp; inOrderTraversal(rootNode.leftChild)&lt;/font&gt;&lt;/div&gt;&lt;div style=&quot;font-size: 14px;&quot;&gt;&amp;nbsp; &amp;nbsp; &lt;font face=&quot;Courier New&quot;&gt;print(rootNode.data)&lt;/font&gt;&lt;font face=&quot;Courier New&quot; style=&quot;font-size: 14px;&quot;&gt;&lt;br&gt;&lt;/font&gt;&lt;/div&gt;&lt;div style=&quot;font-size: 14px;&quot;&gt;&lt;font face=&quot;-dZ3absXpz2kEYb1dsJg&quot; style=&quot;font-size: 14px;&quot;&gt;&amp;nbsp; &amp;nbsp; &amp;nbsp;&lt;/font&gt;&lt;font face=&quot;Courier New&quot; style=&quot;font-size: 14px;&quot;&gt;in&lt;/font&gt;&lt;font face=&quot;Courier New&quot; style=&quot;font-size: 14px;&quot;&gt;OrderTraversal(rootNode.rightChild)&lt;/font&gt;&lt;/div&gt;" style="text;html=1;strokeColor=none;fillColor=none;align=left;verticalAlign=middle;whiteSpace=wrap;rounded=0;" vertex="1" parent="1">
          <mxGeometry width="360" height="130" as="geometry" />
        </mxCell>
      </root>
    </mxGraphModel>
  </diagram>
</mxfile>
